<svg xmlns="http://www.w3.org/2000/svg" viewBox="0 0 94.04 109.61"><g id="Calque_2" data-name="Calque 2"><g id="icons"><path d="M76.68,59.87H21.26a21.26,21.26,0,0,1-.49-42.52,29.93,29.93,0,0,1,56.71,7.83,17.35,17.35,0,0,1-.8,34.69Z" style="fill:#ccd3d6"/><path d="M62.6,79.1a14.52,14.52,0,0,1-9.31-3.23,9.79,9.79,0,0,0-12.54,0,14.53,14.53,0,0,1-9.32,3.23,14.52,14.52,0,0,1-9.31-3.23,9.36,9.36,0,0,0-6.27-2.27,2.64,2.64,0,1,1,0-5.27,14.56,14.56,0,0,1,9.31,3.22,9.79,9.79,0,0,0,12.54,0,15.08,15.08,0,0,1,18.63,0,9.79,9.79,0,0,0,12.54,0,14.58,14.58,0,0,1,9.31-3.22,2.64,2.64,0,1,1,0,5.27,9.38,9.38,0,0,0-6.27,2.27A14.52,14.52,0,0,1,62.6,79.1Z" style="fill:#43c0ff"/><path d="M62.6,94.35a14.58,14.58,0,0,1-9.31-3.22,9.81,9.81,0,0,0-12.54,0,14.53,14.53,0,0,1-9.32,3.23,14.52,14.52,0,0,1-9.31-3.23,9.4,9.4,0,0,0-6.27-2.26,2.64,2.64,0,1,1,0-5.28,14.5,14.5,0,0,1,9.31,3.23,9.37,9.37,0,0,0,6.27,2.26,9.35,9.35,0,0,0,6.27-2.26,15,15,0,0,1,18.63,0,9.83,9.83,0,0,0,12.54,0,14.52,14.52,0,0,1,9.31-3.23,2.64,2.64,0,0,1,0,5.28,9.42,9.42,0,0,0-6.27,2.26A14.52,14.52,0,0,1,62.6,94.35Z" style="fill:#43c0ff"/><path d="M62.6,109.61a14.52,14.52,0,0,1-9.31-3.23,9.79,9.79,0,0,0-12.54,0,14.53,14.53,0,0,1-9.32,3.23,14.52,14.52,0,0,1-9.31-3.23,9.36,9.36,0,0,0-6.27-2.27,2.64,2.64,0,1,1,0-5.27,14.5,14.5,0,0,1,9.31,3.23,9.83,9.83,0,0,0,12.54,0,15,15,0,0,1,18.63,0,9.83,9.83,0,0,0,12.54,0,14.52,14.52,0,0,1,9.31-3.23,2.64,2.64,0,1,1,0,5.27,9.38,9.38,0,0,0-6.27,2.27A14.52,14.52,0,0,1,62.6,109.61Z" style="fill:#43c0ff"/></g></g></svg>