<svg xmlns="http://www.w3.org/2000/svg" viewBox="0 0 94.04 107.8"><g id="Calque_2" data-name="Calque 2"><g id="icons"><path d="M76.68,59.87H21.26a21.26,21.26,0,0,1-.49-42.52,29.93,29.93,0,0,1,56.71,7.83,17.35,17.35,0,0,1-.8,34.69Z" style="fill:#ccd3d6"/><path d="M11.63,107.8a4.7,4.7,0,0,1-4.53-3.43L7,103.94A4.71,4.71,0,1,1,16,101.37l.12.44a4.71,4.71,0,0,1-3.25,5.81A4.76,4.76,0,0,1,11.63,107.8Z" style="fill:#fff"/><path d="M16.55,92.81a3.05,3.05,0,0,1-1.34-.31,3.14,3.14,0,0,1-1.5-4.18l9-19.09a3.14,3.14,0,0,1,5.67,2.69L19.39,91A3.16,3.16,0,0,1,16.55,92.81Z" style="fill:#43c0ff"/><path d="M34.53,107.8A4.7,4.7,0,0,1,30,104.37l-.13-.43a4.71,4.71,0,1,1,9.06-2.57l.13.44a4.71,4.71,0,0,1-3.25,5.81A4.76,4.76,0,0,1,34.53,107.8Z" style="fill:#fff"/><path d="M39.45,92.81a3.05,3.05,0,0,1-1.34-.31,3.14,3.14,0,0,1-1.5-4.18l9-19.09a3.14,3.14,0,0,1,5.67,2.69L42.29,91A3.16,3.16,0,0,1,39.45,92.81Z" style="fill:#43c0ff"/><path d="M57.51,107.62a4.68,4.68,0,0,1-3.68-1.77l-.21-.26A4.71,4.71,0,0,1,61,99.72l.21.25a4.71,4.71,0,0,1-.74,6.62A4.67,4.67,0,0,1,57.51,107.62Z" style="fill:#fff"/><path d="M62.34,92.81A3.09,3.09,0,0,1,61,92.5a3.14,3.14,0,0,1-1.49-4.18l9-19.09a3.14,3.14,0,0,1,5.68,2.69L65.18,91A3.14,3.14,0,0,1,62.34,92.81Z" style="fill:#43c0ff"/></g></g></svg>