<svg xmlns="http://www.w3.org/2000/svg" viewBox="0 0 94.04 103.01"><g id="Calque_2" data-name="Calque 2"><g id="icons"><path d="M76.68,59.87H21.26a21.26,21.26,0,0,1-.49-42.52,29.93,29.93,0,0,1,56.71,7.83,17.35,17.35,0,0,1-.8,34.69Z" style="fill:#ccd3d6"/><path d="M21.89,81.52a3.05,3.05,0,0,1-1.34-.31A3.13,3.13,0,0,1,19.06,77l3.69-7.8a3.14,3.14,0,0,1,5.67,2.69l-3.69,7.8A3.15,3.15,0,0,1,21.89,81.52Z" style="fill:#43c0ff"/><path d="M11.72,103a3.19,3.19,0,0,1-1.34-.3,3.14,3.14,0,0,1-1.5-4.18l3.7-7.81a3.14,3.14,0,0,1,5.67,2.69l-3.69,7.8A3.13,3.13,0,0,1,11.72,103Z" style="fill:#43c0ff"/><path d="M44.79,81.52a3.05,3.05,0,0,1-1.34-.31A3.14,3.14,0,0,1,42,77l3.7-7.8a3.14,3.14,0,0,1,5.67,2.69l-3.69,7.8A3.16,3.16,0,0,1,44.79,81.52Z" style="fill:#43c0ff"/><path d="M34.62,103a3.19,3.19,0,0,1-1.34-.3,3.14,3.14,0,0,1-1.5-4.18l3.69-7.81a3.14,3.14,0,0,1,5.68,2.69l-3.69,7.8A3.14,3.14,0,0,1,34.62,103Z" style="fill:#43c0ff"/><path d="M67.69,81.52a3.05,3.05,0,0,1-1.34-.31A3.14,3.14,0,0,1,64.85,77l3.69-7.8a3.14,3.14,0,0,1,5.68,2.69l-3.69,7.8A3.16,3.16,0,0,1,67.69,81.52Z" style="fill:#43c0ff"/><path d="M57.51,103a3.22,3.22,0,0,1-1.34-.3,3.15,3.15,0,0,1-1.49-4.18l3.69-7.81a3.14,3.14,0,0,1,5.68,2.69l-3.7,7.8A3.12,3.12,0,0,1,57.51,103Z" style="fill:#43c0ff"/></g></g></svg>