<svg xmlns="http://www.w3.org/2000/svg" viewBox="0 0 94.04 105.36"><g id="Calque_2" data-name="Calque 2"><g id="icons"><path d="M19.55,96.34a3.15,3.15,0,0,1-3.14-3.14V73.58a3.14,3.14,0,1,1,6.28,0V93.2A3.15,3.15,0,0,1,19.55,96.34Z" style="fill:#fff"/><path d="M28,91.43A3,3,0,0,1,26.48,91l-17-9.81a3.14,3.14,0,0,1,3.14-5.43l17,9.81A3.13,3.13,0,0,1,28,91.43Z" style="fill:#fff"/><path d="M11.06,91.43a3.14,3.14,0,0,1-1.58-5.85l17-9.81a3.13,3.13,0,0,1,3.13,5.43L12.62,91A3,3,0,0,1,11.06,91.43Z" style="fill:#fff"/><path d="M76.68,59.87H21.26a21.26,21.26,0,0,1-.49-42.52,29.93,29.93,0,0,1,56.71,7.83,17.35,17.35,0,0,1-.8,34.69Z" style="fill:#ccd3d6"/><path d="M51.07,83.87a3.19,3.19,0,0,1-1.34-.3,3.14,3.14,0,0,1-1.5-4.18l3.69-7.81a3.14,3.14,0,0,1,5.68,2.69l-3.69,7.8A3.14,3.14,0,0,1,51.07,83.87Z" style="fill:#43c0ff"/><path d="M40.9,105.36a3.13,3.13,0,0,1-2.84-4.48l3.69-7.8a3.14,3.14,0,0,1,5.68,2.68l-3.7,7.81A3.12,3.12,0,0,1,40.9,105.36Z" style="fill:#43c0ff"/><path d="M74,83.87a3.22,3.22,0,0,1-1.34-.3,3.15,3.15,0,0,1-1.49-4.18l3.69-7.81a3.14,3.14,0,0,1,5.68,2.69l-3.7,7.8A3.12,3.12,0,0,1,74,83.87Z" style="fill:#43c0ff"/><path d="M63.79,105.36a3.07,3.07,0,0,1-1.34-.3A3.13,3.13,0,0,1,61,100.88l3.69-7.8a3.14,3.14,0,1,1,5.67,2.68l-3.69,7.81A3.13,3.13,0,0,1,63.79,105.36Z" style="fill:#43c0ff"/></g></g></svg>