<svg xmlns="http://www.w3.org/2000/svg" viewBox="0 0 94.04 116.79"><g id="Calque_2" data-name="Calque 2"><g id="icons"><path d="M76.68,59.87H21.26a21.26,21.26,0,0,1-.49-42.52,29.93,29.93,0,0,1,56.71,7.83,17.35,17.35,0,0,1-.8,34.69Z" style="fill:#ccd3d6"/><path d="M24.13,94.71A3.15,3.15,0,0,1,21,91.57V72a3.14,3.14,0,1,1,6.28,0V91.57A3.15,3.15,0,0,1,24.13,94.71Z" style="fill:#fff"/><path d="M32.62,89.81a3.06,3.06,0,0,1-1.56-.43l-17-9.81a3.13,3.13,0,0,1,3.13-5.43l17,9.81a3.14,3.14,0,0,1-1.57,5.86Z" style="fill:#fff"/><path d="M15.64,89.81A3.14,3.14,0,0,1,14.07,84l17-9.81a3.13,3.13,0,1,1,3.13,5.43l-17,9.81A3.06,3.06,0,0,1,15.64,89.81Z" style="fill:#fff"/><path d="M69.91,94.71a3.14,3.14,0,0,1-3.14-3.14V72A3.14,3.14,0,1,1,73,72V91.57A3.14,3.14,0,0,1,69.91,94.71Z" style="fill:#fff"/><path d="M78.4,89.81a3.12,3.12,0,0,1-1.57-.43l-17-9.81A3.14,3.14,0,1,1,63,74.14L80,84a3.14,3.14,0,0,1-1.57,5.86Z" style="fill:#fff"/><path d="M61.41,89.81A3.14,3.14,0,0,1,59.84,84l17-9.81A3.14,3.14,0,1,1,80,79.57L63,89.38A3.07,3.07,0,0,1,61.41,89.81Z" style="fill:#fff"/><path d="M47,116.79a3.14,3.14,0,0,1-3.14-3.14V94a3.14,3.14,0,1,1,6.28,0v19.62A3.15,3.15,0,0,1,47,116.79Z" style="fill:#fff"/><path d="M55.51,111.88a3.11,3.11,0,0,1-1.57-.42l-17-9.81a3.14,3.14,0,1,1,3.14-5.44l17,9.81a3.14,3.14,0,0,1-1.57,5.86Z" style="fill:#fff"/><path d="M38.53,111.88A3.14,3.14,0,0,1,37,106l17-9.81a3.14,3.14,0,1,1,3.14,5.44l-17,9.81A3,3,0,0,1,38.53,111.88Z" style="fill:#fff"/></g></g></svg>