<svg xmlns="http://www.w3.org/2000/svg" viewBox="0 0 94.04 110.8"><g id="Calque_2" data-name="Calque 2"><g id="icons"><path d="M76.68,59.87H21.26a21.26,21.26,0,0,1-.49-42.52,29.93,29.93,0,0,1,56.71,7.83,17.35,17.35,0,0,1-.8,34.69Z" style="fill:#ccd3d6"/><path d="M58.73,80.06H46.91l6-13.08a1.11,1.11,0,0,0-1-1.61H41.28a2.09,2.09,0,0,0-1.94,1.34l-5.61,15.9L32,87.28a1.41,1.41,0,0,0,1.32,1.9H47.13l-7,20.1a1.15,1.15,0,0,0,2.06,1L57.54,86.59,60,82.15A1.42,1.42,0,0,0,58.73,80.06Z" style="fill:#ffda40"/></g></g></svg>