<svg xmlns="http://www.w3.org/2000/svg" viewBox="0 0 94.04 101.83"><g id="Calque_2" data-name="Calque 2"><g id="icons"><path d="M76.68,59.87H21.26a21.26,21.26,0,0,1-.49-42.52,29.93,29.93,0,0,1,56.71,7.83,17.35,17.35,0,0,1-.8,34.69Z" style="fill:#ccd3d6"/><path d="M25.42,74.46a3.42,3.42,0,0,1-1.42-.3,3.53,3.53,0,0,1-1.8-4.66l.16-.36A3.53,3.53,0,1,1,28.81,72l-.15.36A3.54,3.54,0,0,1,25.42,74.46Z" style="fill:#43c0ff"/><path d="M19.29,88.3a3.63,3.63,0,0,1-1.43-.3,3.54,3.54,0,0,1-1.8-4.66l.3-.66a3.53,3.53,0,1,1,6.45,2.86l-.29.66A3.53,3.53,0,0,1,19.29,88.3Z" style="fill:#43c0ff"/><path d="M13.29,101.83a3.47,3.47,0,0,1-1.43-.3,3.54,3.54,0,0,1-1.8-4.66l.16-.36a3.53,3.53,0,1,1,6.46,2.86l-.16.36A3.53,3.53,0,0,1,13.29,101.83Z" style="fill:#43c0ff"/><path d="M48.32,74.46a3.47,3.47,0,0,1-1.43-.3A3.53,3.53,0,0,1,45.1,69.5l.15-.36A3.53,3.53,0,1,1,51.71,72l-.16.36A3.52,3.52,0,0,1,48.32,74.46Z" style="fill:#43c0ff"/><path d="M42.19,88.3a3.6,3.6,0,0,1-1.43-.3A3.54,3.54,0,0,1,39,83.34l.29-.66a3.53,3.53,0,1,1,6.46,2.86l-.29.66A3.55,3.55,0,0,1,42.19,88.3Z" style="fill:#43c0ff"/><path d="M36.19,101.83a3.43,3.43,0,0,1-1.43-.3A3.53,3.53,0,0,1,33,96.87l.16-.36a3.53,3.53,0,1,1,6.46,2.86l-.16.36A3.54,3.54,0,0,1,36.19,101.83Z" style="fill:#43c0ff"/><path d="M71.22,74.46a3.43,3.43,0,0,1-1.43-.3A3.54,3.54,0,0,1,68,69.5l.16-.36A3.53,3.53,0,1,1,74.61,72l-.16.36A3.54,3.54,0,0,1,71.22,74.46Z" style="fill:#43c0ff"/><path d="M65.09,88.3a3.6,3.6,0,0,1-1.43-.3,3.53,3.53,0,0,1-1.8-4.66l.29-.66a3.53,3.53,0,1,1,6.46,2.86l-.29.66A3.55,3.55,0,0,1,65.09,88.3Z" style="fill:#43c0ff"/><path d="M59.08,101.83a3.52,3.52,0,0,1-3.22-5l.16-.36a3.53,3.53,0,1,1,6.45,2.86l-.16.36A3.52,3.52,0,0,1,59.08,101.83Z" style="fill:#43c0ff"/></g></g></svg>