<svg xmlns="http://www.w3.org/2000/svg" viewBox="0 0 131.72 95.28"><g id="Calque_2" data-name="Calque 2"><g id="icons"><path d="M79.59,16.81a3.13,3.13,0,0,1-3.13-3.14V3.14a3.14,3.14,0,1,1,6.27,0V13.67A3.13,3.13,0,0,1,79.59,16.81Z" style="fill:#ffda40"/><path d="M128.58,55.26H118.05a3.14,3.14,0,1,1,0-6.27h10.53a3.14,3.14,0,1,1,0,6.27Z" style="fill:#ffda40"/><path d="M106.78,28.07a3.13,3.13,0,0,1-2.22-5.35L112,15.27a3.14,3.14,0,0,1,4.44,4.44L109,27.16A3.12,3.12,0,0,1,106.78,28.07Z" style="fill:#ffda40"/><path d="M52.4,28.07a3.08,3.08,0,0,1-2.21-.92l-7.45-7.44a3.14,3.14,0,0,1,4.44-4.44l7.44,7.45a3.12,3.12,0,0,1,0,4.43A3.09,3.09,0,0,1,52.4,28.07Z" style="fill:#ffda40"/><path d="M114.23,89.9A3.12,3.12,0,0,1,112,89l-7.45-7.45A3.14,3.14,0,0,1,109,77.09l7.45,7.45a3.13,3.13,0,0,1,0,4.44A3.09,3.09,0,0,1,114.23,89.9Z" style="fill:#ffda40"/><path d="M76.68,95.28H21.26a21.26,21.26,0,0,1-.49-42.51,29.93,29.93,0,0,1,56.71,7.82,17.35,17.35,0,0,1-.8,34.69Z" style="fill:#fff"/><path d="M72,37.46A35.46,35.46,0,0,1,83,54.7,22.78,22.78,0,0,1,98.76,68.12a25,25,0,0,0-34.51-35.7A35.29,35.29,0,0,1,72,37.46Z" style="fill:#ffda40"/></g></g></svg>