<svg xmlns="http://www.w3.org/2000/svg" viewBox="0 0 104.25 104.25"><g id="Calque_2" data-name="Calque 2"><g id="icons"><path d="M52.12,77.12a25,25,0,1,1,25-25A25,25,0,0,1,52.12,77.12Z" style="fill:#ffda40"/><path d="M52.12,104.25A3.14,3.14,0,0,1,49,101.11V90.58a3.14,3.14,0,1,1,6.27,0v10.53A3.14,3.14,0,0,1,52.12,104.25Z" style="fill:#ffda40"/><path d="M52.12,16.81A3.13,3.13,0,0,1,49,13.67V3.14a3.14,3.14,0,1,1,6.27,0V13.67A3.13,3.13,0,0,1,52.12,16.81Z" style="fill:#ffda40"/><path d="M13.67,55.26H3.14a3.14,3.14,0,1,1,0-6.27H13.67a3.14,3.14,0,1,1,0,6.27Z" style="fill:#ffda40"/><path d="M101.11,55.26H90.58a3.14,3.14,0,1,1,0-6.27h10.53a3.14,3.14,0,1,1,0,6.27Z" style="fill:#ffda40"/><path d="M17.49,89.9A3.09,3.09,0,0,1,15.27,89a3.13,3.13,0,0,1,0-4.44l7.45-7.44a3.13,3.13,0,0,1,4.43,4.43L19.71,89A3.12,3.12,0,0,1,17.49,89.9Z" style="fill:#ffda40"/><path d="M79.31,28.07a3.13,3.13,0,0,1-2.22-5.35l7.45-7.45A3.14,3.14,0,0,1,89,19.71l-7.45,7.45A3.12,3.12,0,0,1,79.31,28.07Z" style="fill:#ffda40"/><path d="M24.93,28.07a3.08,3.08,0,0,1-2.21-.92l-7.45-7.44a3.14,3.14,0,0,1,4.44-4.44l7.44,7.45a3.12,3.12,0,0,1,0,4.43A3.09,3.09,0,0,1,24.93,28.07Z" style="fill:#ffda40"/><path d="M86.76,89.9A3.12,3.12,0,0,1,84.54,89l-7.45-7.45a3.14,3.14,0,0,1,4.44-4.44L89,84.54A3.13,3.13,0,0,1,89,89,3.09,3.09,0,0,1,86.76,89.9Z" style="fill:#ffda40"/></g></g></svg>